<?xml version="1.0" encoding="UTF-8"?>
<svg id="Layer_2" data-name="Layer 2" xmlns="http://www.w3.org/2000/svg" viewBox="0 0 298.02 135.6">
  <defs>
    <style>
      .cls-1 {
        fill: #b0b1b2;
      }

      .cls-1, .cls-2, .cls-3, .cls-4, .cls-5 {
        fill-rule: evenodd;
        stroke-width: 0px;
      }

      .cls-2 {
        fill: #00571f;
      }

      .cls-3 {
        fill: #3b3a39;
      }

      .cls-4 {
        fill: #ececec;
      }

      .cls-6 {
        stroke: #569fd7;
      }

      .cls-6, .cls-7 {
        fill: none;
        stroke-miterlimit: 22.93;
        stroke-width: 5.67px;
      }

      .cls-7 {
        stroke: #00571f;
      }

      .cls-5 {
        fill: #569fd7;
      }
    </style>
  </defs>
  <g id="Layer_1-2" data-name="Layer 1">
    <g>
      <g>
        <g>
          <path class="cls-1" d="M93.88,27.23c-1.01,2.85-1.73,5.22-3.4,6.9-1.16,1.17-4.4,3.33-6.64,1.91l-4.84-4.97c-.69-.66-1.7-1.59-2.62-2.25-1.07-.77-1.57-.77-2.43-1.28l-.54-.4c-1.46.34-1.68-.11-2.99.69-4.59,2.82-9.85,7.23-14.2,10.69l-31.22,25.84c-1.88,1.6-14.57,11.72-15.38,13.16,2.26-.57,10.01-4.43,12.99-5.73,4.16-1.81,8.38-4.19,11.78-6.68,6.45-4.72,9.93-2.37,14.2-3.95,3.77-1.4,6.64-6.38,9.01-9.78,2.84-4.07,4.9-7.56,8.65-10.49,5.04-3.93,8.15-2.16,12.3,1.39,1.74,1.49,3.16,3.23,4.79,4.73,1.73,1.6,2.73,2.73,4.83,4.36,2.01,1.56,9.14,6.34,11.91,6.36-.14-.26-.1-.19-.22-.49-.01-.03-.05-.1-.06-.19,0-.09-.04-.13-.06-.2-1.27-1-6.7-8.84-5.55-11.52.84-1.94,5.75-4.81,7.07-3.45l5.17,6.76c1.01,1.16,2.1,1.77,2.88,3.26.91.3,1.01.66,1.91,1.44,4.22,3.67,9.02,7.24,13.85,9.86,3.07,1.67,5.5,2.95,8.83,4.46,2.29,1.04,7.19,3.18,9.52,3.52-.3-.57-.28-.37-.47-.86-1.4-.79-3.29-2.61-4.56-4-.78-.86-1.16-1.23-2-2.03l-9.53-11.97c-3.27-4.92-10.29-17.76-10.7-24,1.04.84,1.38,2.25,3.27,4.21,2.43,2.52,10.03,9.37,12.61,9.68-1.11-2.66-6.23-8.3-7.36-17.43-.4-3.19,0-9.21,1.26-11.44,2.6-4.64,7.23,4.28,14.12,7.36,3.14,1.4,1.29,1.63,5.12,7.11,1.32,1.9,9.81,12.33,11.38,13.16-.22-1.19-1.15-2.51-1.67-3.55-1.29-2.56-5.17-11.21-2.49-13.04,3.41-1.64,11.78,11.63,13.85,14.66,1.62,2.38,4.67,5.59,6.89,7.56,1.91,1.69,5.9,5.39,8.27,6.37-1.01-2.19-3.99-5.39-4.1-9.33,1.15.45,3.44,2.38,4.63,3.2,1.61,1.1,3.08,2.15,4.79,3.19,7.75,4.68,13.03,7.17,21.82,9.78,3.57,1.06,9.18,2.61,13.04,2.62-.61-1.12-2.49-2.9-3.14-3.62-1.63-1.84-8.87-9.68-8.89-11.82l6.89,5.8c2.42,1.81,4.96,3.5,7.58,5.26,3.33,2.25,16.07,8.54,16.6,9.08.95.04,4.99,1.96,6.35,2.5,2.23.89,4.06,1.65,6.3,2.42,3.97,1.37,8.95,3.42,13.2,4.26-.35-.33.31-.04-.74-.49-.89-.38-.39.32-.96-.47-.6-.84-.11-1.46.07-1.88-.95-.87-24.51-13.01-36.08-23.78-3.41-3.17-4.49-4.05-7.59-7.69-8.78-10.32-3.4-12.17-18.21-8.6-2.04.49-9.51,2.54-10.88,3.66,1.37,4.56,4.36,6.01,4.77,7.56-8.95-4.77-6.64-4.41-10.43-11.67-2.51-4.8-8.09-1-16.04-5.56-3.09-1.77-3.93-3.51-5.12-6.2-4.12-9.33-11.58-3.52-21.46-10.78-2.28-1.68-3.85-3.58-5.51-5.75-1.13-1.47-3.79-4.57-6.24-4.62-8.57-.17-29.72,17.37-35.84,24.33-.68.77-1.74,2.63-2.32,2.9Z"/>
          <path class="cls-1" d="M99.73,56.85l1.09-.72-.36-.72c-.3-.75.32-1.73-.32-1.73.69-.69,1-.78,1.9-.8,1.8-.04,4.85-.09,6.28.5.11-.68.13.07-.02-.55-.01-.05-.19-.29-.25-.37,1.1.64.32.26,1.26-.57-.78-1.48-1.88-2.09-2.88-3.26l-5.17-6.76c-1.31-1.36-6.23,1.51-7.07,3.45-1.15,2.68,4.28,10.52,5.55,11.52Z"/>
          <path class="cls-1" d="M267.01,76.43l7.53,2.08c-.21-.66.35-.16-.74-.78l-3.39-1.69c-1.56-.68-2.95-1.67-4.47-2.12.28.99.61,1.42,1.08,2.51Z"/>
          <path class="cls-1" d="M266.47,76.27l.54.16c-.47-1.09-.8-1.52-1.08-2.51l-1.1-.5c-.18.42-.67,1.04-.07,1.88.57.79.07.09.96.47,1.05.45.4.16.74.49Z"/>
        </g>
        <g>
          <path class="cls-3" d="M94.99,28.12c-1.01,2.85-1.73,5.22-3.4,6.9-1.16,1.17-4.4,3.33-6.64,1.91l-4.84-4.97c-.69-.66-1.7-1.59-2.62-2.25-1.07-.77-1.57-.77-2.43-1.28l-.54-.4c-1.46.34-1.68-.11-2.99.69-4.59,2.82-9.85,7.23-14.2,10.69l-31.22,25.84c-1.88,1.6-14.57,11.72-15.38,13.16,2.26-.57,10.01-4.43,12.99-5.73,4.16-1.81,8.38-4.19,11.78-6.68,6.45-4.72,9.93-2.37,14.2-3.95,3.77-1.4,6.64-6.38,9.01-9.78,2.84-4.07,4.9-7.56,8.65-10.49,5.04-3.93,8.15-2.16,12.3,1.39,1.74,1.49,3.16,3.23,4.79,4.73,1.73,1.6,2.73,2.73,4.83,4.36,2.01,1.56,9.14,6.34,11.91,6.36-.14-.26-.1-.19-.22-.49-.01-.03-.05-.1-.06-.19,0-.09-.04-.13-.06-.2-1.27-1-6.7-8.84-5.55-11.52.84-1.94,5.75-4.81,7.07-3.45l5.17,6.76c1.01,1.16,2.1,1.77,2.88,3.26.91.3,1.01.66,1.91,1.44,4.22,3.67,9.02,7.24,13.85,9.86,3.07,1.67,5.5,2.95,8.83,4.46,2.29,1.04,7.19,3.18,9.52,3.52-.3-.57-.28-.37-.47-.86-1.39-.79-3.29-2.61-4.56-4-.78-.86-1.16-1.23-2-2.03l-9.53-11.97c-3.27-4.92-10.29-17.76-10.7-24,1.04.84,1.38,2.25,3.27,4.21,2.43,2.52,10.03,9.37,12.61,9.68-1.11-2.66-6.23-8.3-7.36-17.43-.4-3.19,0-9.21,1.26-11.44,2.6-4.64,7.23,4.28,14.12,7.36,3.14,1.4,1.29,1.63,5.12,7.11,1.32,1.9,9.81,12.33,11.38,13.16-.22-1.19-1.15-2.51-1.67-3.55-1.29-2.56-5.17-11.21-2.49-13.04,3.41-1.64,11.78,11.63,13.85,14.66,1.62,2.38,4.67,5.59,6.89,7.56,1.91,1.69,5.9,5.39,8.27,6.37-1.01-2.19-3.99-5.39-4.1-9.33,1.15.45,3.44,2.38,4.63,3.2,1.61,1.1,3.08,2.15,4.79,3.19,7.75,4.68,13.03,7.17,21.82,9.78,3.57,1.06,9.18,2.61,13.04,2.62-.61-1.12-2.49-2.9-3.14-3.62-1.63-1.84-8.87-9.68-8.89-11.82l6.89,5.8c2.42,1.81,4.96,3.5,7.58,5.26,3.33,2.25,16.07,8.54,16.6,9.08.95.04,4.99,1.96,6.35,2.5,2.23.89,4.06,1.65,6.3,2.42,3.97,1.37,8.95,3.42,13.2,4.26-.35-.33.31-.04-.74-.49-.89-.38-.39.32-.96-.47-.6-.84-.11-1.46.07-1.88-.95-.87-24.51-13.01-36.08-23.78-3.41-3.17-4.49-4.05-7.59-7.69-8.78-10.32-3.4-12.17-18.21-8.6-2.04.49-9.51,2.54-10.88,3.66,1.37,4.56,4.36,6.01,4.77,7.56-8.95-4.77-6.64-4.41-10.43-11.67-2.51-4.8-8.09-1-16.04-5.56-3.09-1.77-3.93-3.51-5.12-6.2-4.12-9.33-11.58-3.52-21.46-10.78-2.28-1.68-3.85-3.58-5.51-5.75-1.13-1.47-3.79-4.57-6.24-4.62-8.57-.17-29.72,17.37-35.84,24.33-.68.77-1.74,2.63-2.32,2.9Z"/>
          <path class="cls-3" d="M100.84,57.74l1.09-.72-.36-.72c-.3-.75.32-1.73-.32-1.73.69-.69,1-.78,1.9-.8,1.8-.04,4.85-.09,6.28.5.11-.68.13.07-.02-.55-.01-.05-.19-.29-.25-.37,1.1.64.32.26,1.26-.57-.78-1.48-1.88-2.09-2.88-3.26l-5.17-6.76c-1.31-1.36-6.23,1.51-7.07,3.45-1.15,2.68,4.28,10.52,5.55,11.52Z"/>
          <path class="cls-3" d="M268.12,77.32l7.53,2.08c-.21-.66.35-.16-.74-.78l-3.39-1.69c-1.56-.68-2.95-1.67-4.47-2.12.28.99.61,1.42,1.08,2.51Z"/>
          <path class="cls-3" d="M267.57,77.16l.54.16c-.47-1.09-.8-1.52-1.08-2.51l-1.1-.5c-.18.42-.67,1.04-.07,1.88.57.79.07.09.96.47,1.05.45.4.16.74.49Z"/>
        </g>
        <g>
          <path class="cls-4" d="M96.72,29.31c-1.01,2.85-1.73,5.22-3.4,6.9-1.16,1.17-4.4,3.33-6.64,1.91l-4.84-4.97c-.69-.66-1.7-1.59-2.62-2.25-1.07-.77-1.57-.77-2.43-1.28l-.54-.4c-1.46.34-1.68-.11-2.99.69-4.59,2.82-9.85,7.23-14.2,10.69l-31.22,25.84c-1.88,1.6-14.57,11.72-15.38,13.16,2.26-.57,10.01-4.43,12.99-5.73,4.16-1.81,8.38-4.19,11.78-6.68,6.45-4.72,9.93-2.37,14.2-3.95,3.77-1.4,6.64-6.38,9.01-9.78,2.84-4.07,4.9-7.56,8.65-10.49,5.04-3.93,8.15-2.16,12.3,1.39,1.74,1.49,3.16,3.23,4.79,4.73,1.73,1.6,2.73,2.73,4.83,4.36,2.01,1.56,9.14,6.34,11.91,6.36-.14-.26-.1-.19-.22-.49-.01-.03-.05-.1-.06-.19,0-.09-.04-.13-.06-.2-1.27-1-6.7-8.84-5.55-11.52.84-1.94,5.76-4.81,7.07-3.45l5.17,6.76c1.01,1.16,2.1,1.77,2.88,3.26.91.3,1.01.66,1.91,1.44,4.22,3.67,9.02,7.24,13.85,9.86,3.07,1.67,5.5,2.95,8.83,4.46,2.29,1.04,7.19,3.18,9.52,3.52-.3-.57-.28-.37-.47-.86-1.39-.79-3.29-2.61-4.56-4-.78-.86-1.16-1.23-2-2.03l-9.53-11.97c-3.27-4.92-10.29-17.76-10.7-24,1.04.84,1.38,2.25,3.27,4.21,2.43,2.52,10.03,9.37,12.61,9.68-1.11-2.66-6.23-8.3-7.36-17.43-.4-3.19,0-9.21,1.26-11.44,2.6-4.64,7.23,4.28,14.12,7.36,3.14,1.4,1.29,1.63,5.12,7.11,1.32,1.9,9.81,12.33,11.38,13.16-.22-1.19-1.15-2.51-1.67-3.55-1.29-2.56-5.17-11.21-2.49-13.04,3.41-1.64,11.78,11.63,13.85,14.66,1.62,2.38,4.67,5.59,6.89,7.56,1.91,1.69,5.9,5.39,8.27,6.37-1.01-2.19-3.99-5.39-4.1-9.33,1.15.45,3.44,2.38,4.63,3.2,1.61,1.1,3.08,2.15,4.79,3.19,7.75,4.68,13.03,7.17,21.82,9.78,3.57,1.06,9.18,2.61,13.04,2.62-.61-1.12-2.49-2.9-3.14-3.62-1.63-1.84-8.87-9.68-8.89-11.82l6.89,5.8c2.42,1.81,4.96,3.5,7.58,5.26,3.33,2.25,16.07,8.54,16.6,9.08.95.04,4.99,1.96,6.35,2.5,2.23.89,4.06,1.65,6.3,2.42,3.97,1.37,8.95,3.42,13.2,4.26-.35-.33.31-.04-.74-.49-.89-.38-.39.32-.96-.47-.6-.84-.11-1.46.07-1.88-.95-.87-24.51-13.01-36.08-23.78-3.41-3.17-4.49-4.05-7.59-7.69-8.78-10.32-3.4-12.17-18.21-8.6-2.04.49-9.51,2.54-10.88,3.66,1.37,4.56,4.36,6.01,4.77,7.56-8.95-4.77-6.64-4.41-10.43-11.67-2.51-4.8-8.09-1-16.04-5.56-3.09-1.77-3.93-3.51-5.12-6.2-4.12-9.33-11.58-3.52-21.46-10.78-2.28-1.68-3.85-3.58-5.51-5.75-1.13-1.47-3.79-4.57-6.24-4.62-8.57-.17-29.72,17.37-35.84,24.33-.68.77-1.74,2.63-2.32,2.9Z"/>
          <path class="cls-4" d="M102.58,58.93l1.09-.72-.36-.72c-.3-.75.32-1.73-.32-1.73.69-.69,1-.78,1.9-.8,1.8-.04,4.85-.09,6.28.5.11-.68.13.07-.02-.55-.01-.05-.19-.29-.25-.37,1.1.64.32.26,1.26-.57-.78-1.48-1.88-2.09-2.88-3.26l-5.17-6.76c-1.31-1.36-6.23,1.51-7.07,3.45-1.15,2.68,4.28,10.52,5.55,11.52Z"/>
          <path class="cls-4" d="M269.85,78.51l7.53,2.08c-.21-.66.35-.16-.74-.78l-3.39-1.69c-1.56-.68-2.95-1.67-4.47-2.12.28.99.61,1.42,1.08,2.51Z"/>
          <path class="cls-4" d="M269.31,78.35l.54.16c-.47-1.09-.8-1.52-1.08-2.51l-1.1-.5c-.18.42-.67,1.04-.07,1.88.57.79.07.09.96.47,1.05.45.4.16.74.49Z"/>
        </g>
      </g>
      <path class="cls-5" d="M80.74,48.01v61.16h-16.76v-61.16h16.76ZM131.25,94.6v14.58h-41.03v-61.16h41.03v14.12h-24.6v8.89h19.86v13.57h-19.86v10h24.6ZM186.3,109.18h-18.54l-8.02-23.38h-5.15v23.38h-16.76v-61.16h28.47c6.28,0,11.16,1.65,14.63,4.95,3.47,3.3,5.2,7.66,5.2,13.07,0,3.53-.64,6.65-1.92,9.35-1.28,2.71-3.87,5.09-7.78,7.15l9.86,26.64h0ZM154.58,72.77h7.15c2.1,0,3.79-.49,5.07-1.48,1.28-.99,1.92-2.45,1.92-4.37,0-3.93-2.14-5.88-6.43-5.88h-7.71v11.74h0ZM242.7,109.18h-18.54l-8.02-23.38h-5.15v23.38h-16.76v-61.16h28.47c6.28,0,11.16,1.65,14.63,4.95,3.47,3.3,5.2,7.66,5.2,13.07,0,3.53-.64,6.65-1.92,9.35-1.28,2.71-3.87,5.09-7.78,7.15l9.86,26.64h0ZM210.98,72.77h7.15c2.1,0,3.79-.49,5.07-1.48,1.28-.99,1.92-2.45,1.92-4.37,0-3.93-2.14-5.88-6.43-5.88h-7.71v11.74h0ZM280.75,109.18l-3.01-12.01h-14.84l-3.22,12.01h-13.57l16.87-61.16h17.68l17.15,61.16h-17.07ZM265.94,83.78h8.72l-4.37-17.71-4.35,17.71Z"/>
      <path class="cls-2" d="M17.46,119.9v9.86h-2.35c-.19-.73-.4-1.34-.63-1.85-.97,1.41-2.41,2.11-4.32,2.11-2.02,0-3.68-.79-4.98-2.38-1.3-1.58-1.95-3.73-1.95-6.43s.63-4.83,1.89-6.62c1.26-1.79,3.13-2.68,5.62-2.68,1.87,0,3.37.53,4.51,1.59,1.14,1.07,1.88,2.57,2.22,4.53l-4.65.51c-.23-1.83-.95-2.74-2.16-2.74-1.59,0-2.38,1.68-2.38,5.05,0,2.03.25,3.37.76,4.02.51.65,1.12.97,1.84.97.58,0,1.08-.2,1.49-.59.41-.4.62-.94.63-1.62h-2.61v-3.74h7.07ZM178.56,112.18v17.58h-4.82v-6.83h-3.64v6.83h-4.82v-17.58h4.82v6.48h3.64v-6.48h4.82ZM41.34,125.44v4.32h-11v-17.58h4.82v13.26h6.18ZM59.92,130.02c-2.2,0-4-.82-5.39-2.46-1.39-1.64-2.08-3.83-2.08-6.58s.67-4.79,1.99-6.51c1.33-1.71,3.17-2.57,5.53-2.57,2.18,0,3.96.81,5.34,2.42,1.37,1.61,2.06,3.76,2.06,6.46s-.69,5.03-2.08,6.71c-1.39,1.68-3.17,2.52-5.36,2.52h0ZM59.9,126.04c.81,0,1.4-.4,1.76-1.19.36-.8.54-2.25.54-4.36,0-3.06-.74-4.59-2.2-4.59-1.59,0-2.38,1.74-2.38,5.24,0,3.27.76,4.91,2.29,4.91h0ZM79.74,129.76v-17.58h7.96c1.65,0,2.86.47,3.62,1.4.76.94,1.14,2,1.14,3.2,0,.87-.22,1.66-.66,2.37-.43.71-1.09,1.19-1.95,1.46,2.02.55,3.03,1.92,3.03,4.1,0,1.31-.36,2.47-1.07,3.5-.72,1.03-2.25,1.54-4.59,1.54h-7.47ZM84.16,118.9h2.24c.56,0,.96-.16,1.19-.47.23-.32.35-.65.35-1.01,0-.98-.54-1.46-1.62-1.46h-2.16v2.95h0ZM84.16,125.86h2.36c.59,0,1.02-.16,1.29-.49.27-.32.41-.69.41-1.09s-.13-.78-.4-1.12c-.27-.34-.76-.51-1.46-.51h-2.2v3.22h0ZM113.85,129.76l-.87-3.45h-4.26l-.92,3.45h-3.9l4.85-17.58h5.08l4.93,17.58h-4.91ZM109.59,122.46h2.51l-1.26-5.09-1.25,5.09h0ZM141.52,125.44v4.32h-11v-17.58h4.82v13.26h6.18ZM203.44,125.57v4.19h-11.79v-17.58h11.79v4.06h-7.07v2.56h5.71v3.9h-5.71v2.87h7.07ZM224.34,129.76l-.87-3.45h-4.26l-.92,3.45h-3.9l4.85-17.58h5.08l4.93,17.58h-4.91ZM220.09,122.46h2.51l-1.26-5.09-1.25,5.09h0ZM252.02,125.44v4.32h-11v-17.58h4.82v13.26h6.18ZM269.37,116.4v13.36h-4.56v-13.36h-3.24v-4.22h11.04v4.22h-3.24ZM297.61,112.18v17.58h-4.82v-6.83h-3.64v6.83h-4.82v-17.58h4.82v6.48h3.64v-6.48h4.82Z"/>
      <path class="cls-5" d="M1.59,105.2l-1.59-34.46h6.5c3.11,9.23,6.9,16.26,11.35,21.08,4.47,4.84,9.43,7.25,14.84,7.25,4.03,0,7.33-1.21,9.88-3.62,2.57-2.41,3.84-5.47,3.84-9.19,0-3.41-1-6.19-3-8.33-1.99-2.15-5.57-4.17-10.72-6.03l-11.23-4.25c-6.02-2.21-10.69-5.6-13.99-10.15-3.3-4.56-4.96-9.89-4.96-16.01,0-7.62,2.24-13.81,6.71-18.59s10.3-7.17,17.5-7.17c1.57,0,3.21.2,4.92.57,1.73.39,3.72,1.02,5.97,1.9,1.05.41,2.1.88,3.11,1.43,1.03.53,1.57.78,1.64.78.14,0,.44.06.87.18.44.12.82.18,1.14.18.87,0,1.64-.39,2.29-1.2.65-.8,1.14-1.96,1.43-3.45l4.7-.04,1.27,27.39h-5.2c-2.97-7.17-6.27-12.5-9.88-16.01-3.61-3.51-7.63-5.27-12.03-5.27-3.82,0-6.92,1-9.27,3.02-2.36,2.02-3.53,4.6-3.53,7.8,0,2.64,1.03,5.05,3.07,7.27,2.04,2.19,4.91,3.94,8.56,5.19l11.32,4.02c7.09,2.53,12.36,6.13,15.84,10.85,3.48,4.7,5.22,10.6,5.22,17.71,0,8.11-2.36,14.75-7.05,19.88-4.71,5.15-10.77,7.72-18.21,7.72-1.8,0-3.65-.2-5.55-.61-1.89-.39-4.24-1.14-7.07-2.19-1-.35-2.57-1.02-4.71-2.04-2.15-1-3.74-1.51-4.75-1.51s-1.83.53-2.51,1.61c-.68,1.06-1.1,2.49-1.27,4.29H1.59Z"/>
      <line class="cls-6" x1="1.51" y1="109.59" x2="298.02" y2="109.59"/>
      <line class="cls-7" x1="1.51" y1="132.76" x2="298.02" y2="132.76"/>
    </g>
  </g>
</svg>